# xmcd
# 
# Track frame offsets:
#     150
#     20417
#     38891
#     59870
#     72999
#     87077
#     102484
#     113829
#     138414
#     153836
# 
# Disc length: 2250
# 
# Revision: 0
# Processed by: cddbd v1.5.2PL0 Copyright (c) Steve Scherf et al.
# Submitted via: fre:ac v1.0.31
# 
DISCID=8708c80a
DTITLE=Jayme Stone - Room of Wonders
DYEAR=2010
DGENRE=Folk
TTITLE0=Krasavaska Ruchenitsa
TTITLE1=The Reels
TTITLE2=Vinicius
TTITLE3=Planinsko Horo
TTITLE4=Moresca Nuziale
TTITLE5=Andrea Berget
TTITLE6=Bach: Allemande from the French Suite No. 6
TTITLE7=In Other Rooms, Other Wonders
TTITLE8=Ways of the World
TTITLE9=Troll Kingdom Polska
EXTD=
EXTT0=
EXTT1=
EXTT2=
EXTT3=
EXTT4=
EXTT5=
EXTT6=
EXTT7=
EXTT8=
EXTT9=
PLAYORDER=
